REM DIRINDEX 1\3,1\4,1\5,1\6,1\2\7,1\2\8,1\2\9,1\10
REM DIRNAME folder01,folder02,folder03,folder04,folder05,folder06,folder07,folder08,folder09,folder10
TITLE ""
FILE "2-36 Level 5-849-858.mp3" MP3
  TRACK 01 AUDIO
    TITLE "0:"
    INDEX 01 00:00:00
  TRACK 02 AUDIO
    TITLE "7:cjc056_2887"
    INDEX 01 00:00:09
  TRACK 03 AUDIO
    TITLE "0:"
    INDEX 01 00:01:13
  TRACK 04 AUDIO
    TITLE "8:cjc056_2888"
    INDEX 01 00:01:24
  TRACK 05 AUDIO
    TITLE "0:"
    INDEX 01 00:02:30
  TRACK 06 AUDIO
    TITLE "9:cjc056_2889"
    INDEX 01 00:02:42
  TRACK 07 AUDIO
    TITLE "0:"
    INDEX 01 00:05:40
  TRACK 08 AUDIO
    TITLE "7:cjc056_2890"
    INDEX 01 00:06:18
  TRACK 09 AUDIO
    TITLE "0:"
    INDEX 01 00:07:13
  TRACK 10 AUDIO
    TITLE "8:cjc056_2891"
    INDEX 01 00:07:29
  TRACK 11 AUDIO
    TITLE "0:"
    INDEX 01 00:08:36
  TRACK 12 AUDIO
    TITLE "9:cjc056_2892"
    INDEX 01 00:08:50
  TRACK 13 AUDIO
    TITLE "0:"
    INDEX 01 00:11:46
  TRACK 14 AUDIO
    TITLE "7:cjc056_2893"
    INDEX 01 00:12:22
  TRACK 15 AUDIO
    TITLE "0:"
    INDEX 01 00:13:32
  TRACK 16 AUDIO
    TITLE "8:cjc056_2894"
    INDEX 01 00:13:43
  TRACK 17 AUDIO
    TITLE "0:"
    INDEX 01 00:14:33
  TRACK 18 AUDIO
    TITLE "9:cjc056_2895"
    INDEX 01 00:14:47
  TRACK 19 AUDIO
    TITLE "0:"
    INDEX 01 00:17:43
  TRACK 20 AUDIO
    TITLE "7:cjc056_2896"
    INDEX 01 00:18:19
  TRACK 21 AUDIO
    TITLE "0:"
    INDEX 01 00:19:34
  TRACK 22 AUDIO
    TITLE "8:cjc056_2897"
    INDEX 01 00:19:50
  TRACK 23 AUDIO
    TITLE "0:"
    INDEX 01 00:21:15
  TRACK 24 AUDIO
    TITLE "9:cjc056_2898"
    INDEX 01 00:21:29
  TRACK 25 AUDIO
    TITLE "0:"
    INDEX 01 00:24:47
  TRACK 26 AUDIO
    TITLE "7:cjc056_2899"
    INDEX 01 00:25:25
  TRACK 27 AUDIO
    TITLE "0:"
    INDEX 01 00:26:17
  TRACK 28 AUDIO
    TITLE "8:cjc056_2900"
    INDEX 01 00:26:30
  TRACK 29 AUDIO
    TITLE "0:"
    INDEX 01 00:27:43
  TRACK 30 AUDIO
    TITLE "9:cjc056_2901"
    INDEX 01 00:27:57
  TRACK 31 AUDIO
    TITLE "0:"
    INDEX 01 00:31:02
  TRACK 32 AUDIO
    TITLE "7:cjc056_2902"
    INDEX 01 00:31:67
  TRACK 33 AUDIO
    TITLE "0:"
    INDEX 01 00:33:07
  TRACK 34 AUDIO
    TITLE "8:cjc056_2903"
    INDEX 01 00:33:21
  TRACK 35 AUDIO
    TITLE "0:"
    INDEX 01 00:34:65
  TRACK 36 AUDIO
    TITLE "9:cjc056_2904"
    INDEX 01 00:35:02
  TRACK 37 AUDIO
    TITLE "0:"
    INDEX 01 00:37:48
  TRACK 38 AUDIO
    TITLE "7:cjc056_2905"
    INDEX 01 00:38:26
  TRACK 39 AUDIO
    TITLE "0:"
    INDEX 01 00:39:21
  TRACK 40 AUDIO
    TITLE "8:cjc056_2906"
    INDEX 01 00:39:37
  TRACK 41 AUDIO
    TITLE "0:"
    INDEX 01 00:40:62
  TRACK 42 AUDIO
    TITLE "9:cjc056_2907"
    INDEX 01 00:40:73
  TRACK 43 AUDIO
    TITLE "0:"
    INDEX 01 00:43:13
  TRACK 44 AUDIO
    TITLE "7:cjc056_2908"
    INDEX 01 00:43:64
  TRACK 45 AUDIO
    TITLE "0:"
    INDEX 01 00:44:60
  TRACK 46 AUDIO
    TITLE "8:cjc056_2909"
    INDEX 01 00:45:00
  TRACK 47 AUDIO
    TITLE "0:"
    INDEX 01 00:46:11
  TRACK 48 AUDIO
    TITLE "9:cjc056_2910"
    INDEX 01 00:46:23
  TRACK 49 AUDIO
    TITLE "0:"
    INDEX 01 00:49:12
  TRACK 50 AUDIO
    TITLE "7:cjc056_2911"
    INDEX 01 00:50:01
  TRACK 51 AUDIO
    TITLE "0:"
    INDEX 01 00:51:09
  TRACK 52 AUDIO
    TITLE "8:cjc056_2912"
    INDEX 01 00:51:22
  TRACK 53 AUDIO
    TITLE "0:"
    INDEX 01 00:52:28
  TRACK 54 AUDIO
    TITLE "9:cjc056_2913"
    INDEX 01 00:52:41
  TRACK 55 AUDIO
    TITLE "0:"
    INDEX 01 00:55:16
  TRACK 56 AUDIO
    TITLE "7:cjc056_2914"
    INDEX 01 00:55:69
  TRACK 57 AUDIO
    TITLE "0:"
    INDEX 01 00:56:57
  TRACK 58 AUDIO
    TITLE "8:cjc056_2915"
    INDEX 01 00:57:07
  TRACK 59 AUDIO
    TITLE "0:"
    INDEX 01 00:58:22
  TRACK 60 AUDIO
    TITLE "9:cjc056_2916"
    INDEX 01 00:58:36
  TRACK 61 AUDIO
    TITLE "0:"
    INDEX 01 01:01:48
